<svg width="122px" height="40px" viewBox="0 0 122 40" version="1.1" xmlns="http://www.w3.org/2000/svg" xmlns:xlink="http://www.w3.org/1999/xlink">
    <!-- Generator: Sketch 58 (84663) - https://sketch.com -->
    <title>Group 2 Copy</title>
    <desc>Created with Sketch.</desc>
    <g id="logo___uRWMtWW3" stroke="none" stroke-width="1" fill="none" fill-rule="evenodd">
        <g id="Group-2-Copy___uRWMtWW3">
            <rect id="Rectangle___uRWMtWW3" fill="#FFFFFF" x="0" y="0" width="122" height="40"></rect>
            <g id="Group___uRWMtWW3" transform="translate(17.000000, 6.000000)" fill-rule="nonzero">
                <path d="M47.2655961,3.48755304 L53.6977752,3.48755304 L53.7090548,5.81388784 L50.8036236,18.4359536 L53.7729724,18.4359536 L53.7861319,21.4515028 L46.9544677,21.4515028 L46.9431881,18.9306774 L49.8241803,6.49460512 L47.2768756,6.49460512 L47.2655961,3.48566478 L47.2655961,3.48755304 Z M81.6288295,12.5653571 L81.6288295,12.5653571 L81.6288295,12.6352226 C82.576794,12.8895079 83.2429456,13.7430185 83.2624883,14.7283575 L83.3066667,21.4581117 L79.6680629,21.4581117 L79.6201247,13.8918589 L78.4489285,13.8918589 L78.4978067,21.4571676 L74.8526232,21.4571676 L74.7435873,3.49982672 L80.5807687,3.49982672 C82.0251791,3.5034238 83.1968093,4.67561023 83.2060904,6.12639466 L83.2342894,10.4939372 C83.2276631,11.4690176 82.5687552,12.3176135 81.6288295,12.5615806 L81.6288295,12.5653571 Z M79.5674867,5.82899391 L78.3991104,5.82899391 L78.4329491,11.3049443 L79.6032053,11.3049443 L79.5674867,5.82899391 Z M71.3747534,3.49793846 L71.3747534,3.49793846 L73.6598078,21.4552794 L70.0945213,21.4552794 L69.8021923,17.6589351 L68.286969,17.6589351 L68.0397583,21.4571676 L64.5007908,21.4571676 L64.9294147,17.6504379 L63.3408742,17.6504379 L63.8240161,21.4590559 L60.24839,21.4590559 L59.9664005,17.6608234 L58.4492973,17.6608234 L58.191747,21.46 L54.6565393,21.46 L56.6925031,3.4960502 L61.5483613,3.4960502 L63.0165863,15.0616352 L65.2208038,15.0616352 L66.523595,3.49699433 L71.3747534,3.49699433 L71.3747534,3.49793846 Z M59.7784076,15.0597469 L59.7784076,15.0597469 L59.2012692,6.50121403 L59.0912933,6.50121403 L58.5752526,15.0597469 L59.7784076,15.0597469 Z M69.623599,15.0597469 L69.623599,15.0597469 L69.0257813,6.50215816 L68.9317849,6.50215816 L68.4129243,15.0597469 L69.623599,15.0597469 Z M36.0518159,6.10751208 L36.0518159,6.10751208 L36.0649754,9.6649916 C36.0571227,10.6441687 35.3956064,11.4960241 34.4519958,11.7420762 L34.4519958,11.8100536 C35.3992391,12.0669728 36.0635434,12.9216192 36.0818948,13.9069649 L36.1016738,18.8268231 C36.1034332,19.1498163 36.0441027,19.4702104 35.9268006,19.7709525 L32.4263716,14.753849 L32.4197919,13.0723545 L31.2542355,13.0723545 L27.5883728,7.82299517 L27.5733333,3.48 L33.4264942,3.48 C34.8749296,3.48 36.0511535,4.65550986 36.0583957,6.11034447 L36.0518159,6.10751208 Z M32.3925329,5.8063348 L31.2260366,5.8063348 L31.242016,10.4741105 L32.4085123,10.4741105 L32.3925329,5.80539067 L32.3925329,5.8063348 Z M46.2758131,21.4505587 L42.7039468,21.4505587 L42.4219574,17.6513821 L40.9010943,17.6513821 L40.6388442,21.4515028 L37.1017566,21.4515028 L39.1536998,3.48283239 L44.0170777,3.48283239 L46.2729932,21.4505587 L46.2758131,21.4505587 Z M42.2396042,15.053138 L42.2396042,15.053138 L41.6756253,6.49082861 L41.5637695,6.49082861 L41.0402091,15.0521939 L42.2396042,15.053138 Z" id="Shape___uRWMtWW3" fill="#03334F"></path>
                <path d="M17.7848203,3.491323 L23.7181262,3.491323 L23.7379416,9.65103604 L20.0211331,9.65103604 L20.0079228,5.80687689 L18.8435304,5.80687689 L18.8850484,19.1689627 L20.0494408,19.1689627 L20.0324562,14.318 L19.5323525,14.318 L19.5238601,11.7703246 L23.7436032,11.7703246 L23.7747417,21.4533785 L17.833887,21.4533785 C16.3811547,21.4539076 15.201747,20.2791521 15.1965477,18.8264419 L15.1597305,6.11637228 C15.1572369,5.41979344 15.4323906,4.75092473 15.9243336,4.25774651 C16.4162766,3.76456828 17.0844567,3.48773466 17.7810459,3.4884907 L17.7848203,3.491323 Z M10.1200232,21.4562091 L13.7877649,21.4562091 L13.7386982,3.48754867 L10.0737872,3.48754867 L10.1200232,21.4571527 L10.1200232,21.4562091 Z M8.51591696,6.11259794 L8.51591696,6.11259794 L8.52440929,9.67085129 C8.51369791,10.6490949 7.84980544,11.4992406 6.90331839,11.746735 L6.90331839,11.8156166 C7.85291226,12.073718 8.51829882,12.9274501 8.53667598,13.9113155 L8.54800335,18.8311598 C8.54925612,19.528078 8.27283113,20.1967865 7.77985332,20.6894058 C7.2868755,21.1820251 6.61796253,21.457967 5.92103922,21.4562175 L0.0377436763,21.4562175 L0,3.48 L5.87763399,3.48 C7.32981765,3.48257503 8.50771472,4.65666876 8.51497337,6.10882361 L8.51591696,6.11259794 Z M4.8623291,13.0724698 L4.8623291,13.0724698 L3.6847264,13.0724698 L3.69793668,19.1198964 L4.87742657,19.1198964 L4.8623291,13.0743569 L4.8623291,13.0724698 Z M4.84628803,5.81253839 L3.66868533,5.81253839 L3.68000844,10.4795023 L4.85761114,10.4795023 L4.84628803,5.81348198 L4.84628803,5.81253839 Z M32.2698996,14.7605407 L32.2698996,14.7605407 L32.2868843,19.1227271 L31.1158867,19.1227271 L31.0941841,13.0837928 L27.4141757,7.83746857 L27.4632425,21.4599917 L33.3427636,21.4599917 C34.4285173,21.4627132 35.402213,20.7920346 35.7866667,19.7766305 L32.2727304,14.7624278 L32.2698996,14.7605407 Z" id="Shape___uRWMtWW3" fill="#EB5E21"></path>
                <path d="M88,1.11353765 C87.6553127,1.15568625 87.3582818,1.36925091 87.2164671,1.6768963 C86.5746103,2.78329811 85.3709116,3.47136912 84.0621507,3.48 C84.238308,3.1969857 85.5301281,2.96470038 84.787882,1.9305412 C84.5025439,1.53093924 84.5126363,1.39655195 84.5419958,1.30755374 C84.338034,1.19902876 84.250104,0.959593213 84.3373965,0.750424958 C84.1694391,0.670373456 84.0953056,0.476916927 84.1685791,0.309883828 C84.0400069,0.253009357 83.9406957,0.148005124 83.8933333,0.0188596881 C84.3198563,-0.0536531 84.7554946,0.0856476356 85.0539529,0.389982216 C85.7228001,0.923971464 85.8521656,1.25415482 86.3099911,1.25415482 C86.7678165,1.25415482 87.0715043,0.783354295 87.5183199,0.783354295 C87.7309216,0.796078105 87.9176462,0.924764639 88,1.11531761 L88,1.11353765 Z" id="Path___uRWMtWW3" fill="#EB5E21"></path>
                <path d="M27.5733333,24.0556071 L28.1968916,24.0556071 L29.444008,27.0815027 L30.6704644,24.0556071 L31.2433115,24.0556071 C31.2070351,24.1315052 31.1841435,24.2133959 31.1756968,24.297486 C31.1581272,24.4206085 31.1512135,24.5450854 31.1550367,24.6694591 L31.1634886,27.2713439 C31.1620322,27.3958023 31.1701966,27.5201833 31.187905,27.643317 C31.1975315,27.7264218 31.2217102,27.8070582 31.2592761,27.8813413 L30.5709204,27.8813413 C30.6031421,27.8127926 30.6252946,27.7397256 30.636657,27.6645176 C30.6538435,27.5338937 30.6620027,27.4021858 30.6610734,27.2703802 L30.7052108,24.8612277 L29.484389,27.9449429 L29.3707587,27.9449429 L28.1180077,24.8833919 L28.1762315,27.2674892 C28.1828051,27.4602215 28.1884397,27.595134 28.2006479,27.6780088 C28.2089008,27.7479092 28.2299284,27.8155849 28.2626281,27.8774867 L27.5864806,27.8774867 C27.6226201,27.809207 27.6449775,27.7341531 27.6522172,27.6568083 C27.6680446,27.528995 27.6746363,27.4001553 27.6719382,27.2713439 L27.6634863,24.6694591 C27.6652053,24.5383357 27.6576729,24.4072565 27.6409481,24.2772491 C27.633727,24.1993366 27.610695,24.1238374 27.5733333,24.0556071 L27.5733333,24.0556071 Z M33.5553602,26.6709831 L33.5553602,26.6709831 C33.3337959,26.6653057 33.1143384,26.7163066 32.9167765,26.8193869 C32.7766268,26.8937656 32.6893964,27.042953 32.691394,27.2048513 C32.6881497,27.3106515 32.7287591,27.4129051 32.8031462,27.4862403 C32.8826193,27.5599354 32.9872696,27.5983872 33.0942652,27.5932067 C33.2156291,27.5971583 33.3338785,27.5533784 33.4248262,27.4708217 C33.5110696,27.3951996 33.5593904,27.2836335 33.5562993,27.1672685 L33.5562993,26.6748377 L33.5553602,26.6709831 Z M33.5553602,26.3337017 L33.5553602,26.3337017 L33.5553602,25.886563 C33.5651748,25.7855575 33.5307712,25.6852954 33.4614509,25.6128833 C33.3648846,25.5496772 33.2505838,25.521202 33.1365245,25.5319357 C32.9948542,25.5297416 32.8542422,25.557288 32.7233232,25.6128833 C32.5982933,25.6669298 32.4861598,25.7481342 32.3946404,25.8509075 L32.3223302,25.6071013 C32.3162506,25.5927149 32.3124465,25.5774255 32.3110611,25.5618092 C32.3077569,25.5469554 32.3061807,25.5317519 32.3063656,25.5165172 C32.3063656,25.431715 32.400275,25.3478765 32.5880937,25.2659653 C32.7934169,25.1831553 33.0126834,25.142871 33.2332511,25.147435 C33.4464674,25.1312664 33.65838,25.1930554 33.8314538,25.3218576 C33.9699989,25.4597983 34.0424562,25.6532567 34.0296026,25.8509075 L34.0296026,27.2694166 C34.0255545,27.3647908 34.0432397,27.4598194 34.0812527,27.5469509 C34.1204612,27.6271122 34.1777729,27.696496 34.2484114,27.7493198 L33.9206677,27.9141058 C33.901659,27.9257726 33.8810963,27.9345375 33.8596266,27.9401246 L33.8267583,27.9487976 C33.7843528,27.9450465 33.7466113,27.9197099 33.7262753,27.8813413 C33.6851982,27.8198304 33.6535291,27.7522353 33.6323659,27.6808998 C33.5420173,27.765835 33.4377355,27.8336949 33.3243432,27.8813413 C33.2110893,27.9272964 33.0902057,27.9502072 32.9684267,27.9487976 C32.7793474,27.9593405 32.5939197,27.8924484 32.4528642,27.762811 C32.3251433,27.6294068 32.2571236,27.4475802 32.2650455,27.2607436 C32.2513739,26.9994448 32.3712856,26.7496961 32.5815201,26.6015995 C32.879345,26.4238102 33.2183317,26.3316037 33.562873,26.3346654 L33.5553602,26.3337017 Z M35.6711384,23.7896366 L35.6711384,23.7896366 L35.6805293,26.1024231 C35.6805293,26.1573517 35.6805293,26.2488995 35.6692602,26.3799574 L35.6692602,26.4059763 C36.1059388,25.8875267 36.3933014,25.5521726 36.538861,25.3979869 C36.6844205,25.2438011 36.7773908,25.1695992 36.8205891,25.1695992 C36.8399054,25.1718509 36.8583357,25.1791505 36.8741174,25.1907997 C36.8957464,25.2071844 36.9158648,25.2255711 36.9342194,25.2457284 L37.1135863,25.4779707 C37.0616761,25.4987596 37.0119613,25.5249131 36.9652095,25.5560273 C36.9134716,25.5925464 36.8653476,25.634183 36.8215282,25.6803395 L36.1068779,26.4233222 L36.8985338,27.3600007 C36.9448947,27.41647 36.9971728,27.4675304 37.0544234,27.5122591 C37.1110089,27.5568574 37.1713487,27.5962014 37.2347294,27.6298258 L36.9708441,27.8957962 C36.9561946,27.9117633 36.9390566,27.9251159 36.920133,27.9353063 C36.90136,27.9431682 36.881245,27.9470999 36.8609701,27.9468798 C36.8284166,27.9452224 36.7971984,27.9330829 36.7717562,27.9121785 C36.7322662,27.8790218 36.6977726,27.8400537 36.669395,27.7965391 L35.8242106,26.682547 L35.6842857,26.8107139 L35.6842857,27.2183425 C35.6831021,27.3515628 35.6890587,27.4847491 35.7021285,27.6172982 C35.7136417,27.7087917 35.7340916,27.7988653 35.7631696,27.8861596 L35.1405504,27.8861596 C35.1676871,27.8039229 35.1862595,27.7189681 35.195957,27.6327168 C35.2083725,27.4949712 35.2140142,27.356671 35.2128606,27.2183425 L35.2015915,24.4931092 C35.2028744,24.3937882 35.196279,24.2945247 35.1818705,24.1963016 C35.1731119,24.1224919 35.15381,24.0504079 35.1245858,23.9823688 L35.6645647,23.7896366 L35.6711384,23.7896366 Z M37.9512579,27.8861596 L37.9512579,27.8861596 C37.9804914,27.8044888 37.9994268,27.7193171 38.0076035,27.6327168 C38.0227211,27.4951599 38.029308,27.3567564 38.0273245,27.2183425 L38.0207508,25.8518712 C38.0222819,25.7515104 38.0150534,25.6512105 37.9991517,25.5521726 C37.9879744,25.479562 37.967119,25.4088737 37.9371715,25.3420945 L38.493115,25.1493623 L38.5015668,27.2221972 C38.5004057,27.3548254 38.5069911,27.4874058 38.5212878,27.6192255 C38.5305156,27.710852 38.5500537,27.8010736 38.5795116,27.8880869 L37.9512579,27.8861596 Z M38.2480115,23.9765868 L38.2480115,23.9765868 C38.324362,23.9736191 38.3982638,24.0045149 38.4508557,24.061389 C38.5041091,24.1178804 38.5331813,24.19385 38.5316178,24.2724308 C38.5319459,24.3473651 38.5028325,24.4192733 38.4508557,24.4719086 C38.3702013,24.5537987 38.2495459,24.5780487 38.1447454,24.5334324 C38.0399449,24.4888161 37.9714537,24.3840414 37.9709789,24.2676125 C37.9684643,24.190655 37.9970047,24.1160428 38.0498627,24.061389 C38.1009942,24.0058339 38.1726201,23.975034 38.2470724,23.9765868 L38.2480115,23.9765868 Z M40.1261989,25.147435 L40.1261989,25.147435 L40.1506154,25.4365333 C40.2643049,25.3394892 40.39498,25.2655742 40.5356438,25.2187459 C40.6815736,25.1689576 40.8345078,25.1442126 40.9882869,25.1455077 C41.2046379,25.1254929 41.4203572,25.1902148 41.5921242,25.3266759 C41.7299267,25.4879335 41.797747,25.6998488 41.7799429,25.9135455 L41.7846384,27.2183425 C41.7841143,27.3510089 41.7913269,27.4835887 41.8062376,27.6153709 C41.8150688,27.706974 41.8342939,27.7972055 41.8635223,27.8842323 L41.2446595,27.8842323 C41.2730752,27.8002181 41.2925956,27.7133092 41.3028833,27.6250075 C41.3150454,27.4898305 41.3200613,27.3540765 41.3179088,27.2183425 L41.3132134,26.0359305 C41.3231155,25.9072976 41.286695,25.7794054 41.2108521,25.6764849 C41.1204627,25.5963255 41.0020158,25.5576678 40.8831084,25.5695185 C40.754533,25.5695957 40.6271143,25.5944386 40.507471,25.6427568 C40.3832364,25.6960985 40.2676523,25.7685631 40.1647018,25.8576532 L40.1722145,27.2183425 C40.1702506,27.3554739 40.1768377,27.4925938 40.1919355,27.6288621 C40.2013838,27.7161518 40.2212538,27.8019184 40.2510984,27.8842323 L39.6237838,27.8842323 C39.6508649,27.8018639 39.6700506,27.716981 39.6810685,27.6307895 C39.6933673,27.4933694 39.6980703,27.3553448 39.6951549,27.2173789 L39.6951549,25.8499439 C39.6954132,25.7500143 39.6888233,25.6501898 39.6754339,25.551209 C39.6653096,25.4783946 39.6453992,25.4073716 39.616271,25.3401672 L40.1280771,25.147435 L40.1261989,25.147435 Z M43.2505637,26.0754406 L43.2505637,26.0754406 C43.2412252,26.2374253 43.2866705,26.3977515 43.3792195,26.5293249 C43.4691209,26.6387739 43.6044008,26.6978077 43.7435879,26.688329 C43.8840282,26.6972062 44.0204787,26.6384191 44.1126517,26.5293249 C44.2044386,26.3975302 44.2486036,26.2370345 44.2375512,26.0754406 C44.2463266,25.9139729 44.1990825,25.7545348 44.1041999,25.6254109 C44.0082681,25.5181028 43.870189,25.461072 43.7285624,25.4702614 C43.593271,25.4615608 43.4619544,25.5191074 43.3745241,25.6254109 C43.2852569,25.7568283 43.2425072,25.9156374 43.253381,26.0754406 L43.2505637,26.0754406 Z M43.8985383,27.8861596 L43.8985383,27.8861596 C43.717471,27.8768921 43.5367103,27.9098387 43.3698286,27.9825257 C43.2575007,28.025976 43.182841,28.1359155 43.1820098,28.2590964 C43.1824592,28.3791379 43.2505472,28.4880739 43.3566813,28.5385581 C43.5125757,28.6114345 43.6833464,28.6444983 43.8544009,28.6349242 C44.0278759,28.6425929 44.2002401,28.6030291 44.3539988,28.5202486 C44.4679703,28.470218 44.5444087,28.3581636 44.5512085,28.2311503 C44.5461093,28.1190514 44.4768011,28.020692 44.3746588,27.9805984 C44.2250488,27.9089135 44.0606338,27.8758319 43.8957211,27.8842323 L43.8985383,27.8861596 Z M44.2741758,25.2370555 L44.2741758,25.2370555 C44.3023486,25.2370555 44.3342778,25.2438011 44.3680852,25.2447648 C44.4018926,25.2457284 44.4441518,25.2447648 44.5014365,25.2447648 C44.615925,25.2458579 44.7303775,25.240066 44.8442057,25.2274189 C44.9192253,25.219337 44.9928314,25.2008593 45.0630145,25.1724902 L45.0132426,25.4336423 C45.0076298,25.4842472 44.9834545,25.5307618 44.9456278,25.5637366 C44.8968706,25.5920281 44.8407773,25.6041461 44.7850428,25.5984284 C44.7625045,25.5984284 44.7089762,25.5984284 44.6338487,25.5859008 C44.5953459,25.5801188 44.5690512,25.5781915 44.5512085,25.5772278 C44.5876513,25.6503012 44.616303,25.7271968 44.636666,25.8065791 C44.6552399,25.884163 44.6646981,25.9637492 44.6648388,26.0436397 C44.6805322,26.2845924 44.6029109,26.5221631 44.4488473,26.7047112 C44.2767026,26.8745755 44.0472058,26.9695354 43.8083853,26.969718 C43.6851607,26.9720736 43.5638352,27.0013096 43.4524688,27.0554838 C43.3816848,27.0953132 43.3393569,27.173197 43.343534,27.2559253 C43.343534,27.4284206 43.5313527,27.5180411 43.9163811,27.529605 C43.9445539,27.529605 43.9689704,27.529605 43.9839959,27.529605 C44.2388701,27.5195647 44.491462,27.5822797 44.7136717,27.7107733 C44.8743248,27.823236 44.9661675,28.013553 44.9559579,28.2128407 C44.9520493,28.4441174 44.8301171,28.6563125 44.6347878,28.7717641 C44.3952372,28.9302636 44.113845,29.0090146 43.8290454,28.9972608 C43.5445138,29.0142911 43.2608194,28.9516712 43.0082775,28.8160925 C42.8284879,28.7097064 42.7202454,28.5105133 42.7265494,28.2976429 C42.7229572,28.1654409 42.7674855,28.0366066 42.8514489,27.93627 C42.9496625,27.8283225 43.0756721,27.7511398 43.2148781,27.7136643 C43.1339452,27.6715806 43.063566,27.6109022 43.0092166,27.5363507 C42.9659783,27.4637452 42.9426201,27.3805184 42.9416019,27.2954354 C42.9408747,27.2065059 42.9649904,27.1192241 43.0110948,27.0439199 C43.062377,26.9626141 43.1332071,26.8962369 43.2167563,26.8511877 C43.0851142,26.7968287 42.9750156,26.698778 42.9040381,26.5726896 C42.8258028,26.4299049 42.7865473,26.2681093 42.7904078,26.1043504 C42.7788081,25.8445501 42.871071,25.5911511 43.0458413,25.4028052 C43.22166,25.2216274 43.4636648,25.1247414 43.7125978,25.1358711 C43.7864989,25.1378964 43.8602047,25.1446551 43.9332848,25.1561079 C44.0168641,25.1715265 44.1286163,25.1965817 44.2769931,25.2303098 L44.2741758,25.2370555 Z M47.4098097,24.0565707 L48.1207036,24.0565707 C48.0830936,24.1325453 48.0589282,24.2147689 48.0493325,24.2994133 C48.033676,24.4223982 48.0270836,24.54642 48.0296116,24.6704228 L48.0408807,27.2723076 C48.0407021,27.3970145 48.048545,27.5215975 48.064358,27.6452444 C48.0752984,27.7280013 48.1000787,27.808199 48.1376073,27.882305 L47.4267134,27.882305 C47.4603295,27.807678 47.4818971,27.7279386 47.4905718,27.646208 C47.5052006,27.5221596 47.5117888,27.3972515 47.5102927,27.2723076 L47.4990236,24.6704228 C47.5000105,24.5415596 47.4924805,24.412776 47.4764854,24.2849584 C47.4668129,24.204198 47.443955,24.1256859 47.4088706,24.0527161 L47.4098097,24.0565707 Z M49.7030765,25.1483987 L49.7030765,25.1483987 L49.7246757,25.437497 C49.8389518,25.3413383 49.9694567,25.2675195 50.1097041,25.2197096 C50.2564256,25.1707405 50.4099479,25.146654 50.5642255,25.1483987 C50.7801406,25.1283598 50.9954672,25.1927203 51.1671236,25.3286033 C51.3053652,25.4899864 51.3732302,25.7023897 51.3549424,25.9164365 L51.3596378,27.2202699 C51.359246,27.3529327 51.3664582,27.4855044 51.381237,27.6172982 C51.390868,27.7089464 51.4107189,27.7991573 51.4403999,27.8861596 L50.8215371,27.8861596 C50.8502144,27.8023336 50.8691277,27.7153207 50.8778828,27.6269348 C50.8895177,27.4917231 50.8945325,27.3559974 50.8929083,27.2202699 L50.8882128,26.0378578 C50.9002953,25.9093015 50.8636348,25.7809117 50.7858516,25.6793759 C50.695379,25.598616 50.5765237,25.5595874 50.4571688,25.5714458 C50.3284207,25.570605 50.2007743,25.5958198 50.0815313,25.6456477 C49.9560587,25.6972159 49.839642,25.7694792 49.7368839,25.8595805 L49.7443967,27.2202699 C49.7434755,27.3573807 49.7500595,27.4944364 49.7641176,27.6307895 C49.7742648,27.717953 49.7941153,27.8036356 49.8232805,27.8861596 L49.1959659,27.8861596 C49.2259733,27.8053389 49.2452412,27.7207406 49.2532507,27.6346441 C49.2671321,27.4969994 49.27309,27.3586344 49.2710934,27.2202699 L49.2645198,25.8528349 C49.265192,25.7528215 49.2579687,25.6529165 49.2429206,25.5540999 C49.2350595,25.4813484 49.2157117,25.4103948 49.1856359,25.3440218 L49.6993202,25.1512896 L49.7030765,25.1483987 Z M54.0060039,25.7940515 L54.0060039,25.7940515 C53.9411577,25.7162622 53.859909,25.6546377 53.7684132,25.6138469 C53.6779185,25.5729856 53.5799079,25.5526078 53.4810505,25.5540999 C53.2886514,25.5511134 53.108753,25.6516407 53.0068082,25.8191067 C52.8795179,26.0348646 52.8192487,26.2852733 52.834015,26.5370342 C52.8219555,26.7899974 52.8809531,27.0411923 53.0039909,27.2607436 C53.1030547,27.4253973 53.2793584,27.5242785 53.4679032,27.5209321 C53.5750118,27.5220028 53.6807529,27.4961992 53.775926,27.4457665 C53.8701384,27.3963082 53.9513221,27.3242405 54.0125776,27.2356884 L54.0060039,25.7901969 L54.0060039,25.7940515 Z M54.4652207,23.7906003 L54.4652207,23.7906003 L54.4793071,27.1634139 C54.47781,27.2818121 54.4952585,27.39966 54.5309573,27.5122591 C54.5595472,27.6025183 54.6114789,27.6831199 54.6812123,27.7454651 L54.3994842,27.9054328 L54.3431386,27.9343427 C54.3331819,27.9394341 54.3223168,27.9423854 54.3112094,27.9430156 C54.2830366,27.9430156 54.2501683,27.9169968 54.2173,27.8659227 C54.1746553,27.8019993 54.1402494,27.7326828 54.1149388,27.6596993 C54.007758,27.7538946 53.885838,27.8288299 53.7543268,27.8813413 C53.6279974,27.930515 53.49408,27.9559753 53.3589683,27.9565099 C53.068612,27.957275 52.7967435,27.810386 52.6330489,27.5642968 C52.4310771,27.267936 52.3291642,26.9118934 52.342869,26.5505254 C52.3226916,26.1883644 52.4252147,25.8301901 52.6330489,25.536754 C52.8122012,25.2875209 53.098576,25.1436449 53.4002885,25.1512896 C53.6142475,25.1486794 53.8242331,25.2106757 54.0041257,25.3295669 L54.0041257,24.357233 C54.0039543,24.2850395 53.9967183,24.2130461 53.9825266,24.1423365 C53.9695407,24.0775518 53.9493756,24.014504 53.9224246,23.9544226 L54.4708553,23.7925276 L54.4652207,23.7906003 Z M55.5818031,27.8861596 L55.5818031,27.8861596 C55.6112215,27.8051552 55.6304712,27.7206374 55.6390879,27.6346441 C55.6522916,27.4969606 55.6573094,27.3585795 55.6541134,27.2202699 L55.6522352,25.8528349 C55.6534274,25.7528765 55.6468327,25.6529801 55.6325142,25.5540999 C55.6209171,25.4813515 55.599421,25.4106349 55.5686558,25.3440218 L56.1245993,25.1512896 L56.1349293,27.2221972 C56.1343025,27.3548133 56.1408864,27.4873621 56.1546503,27.6192255 C56.1648884,27.710769 56.1847242,27.8009114 56.2138132,27.8880869 L55.5818031,27.8861596 Z M55.8748004,23.9785142 L55.8748004,23.9785142 C55.950794,23.9775489 56.0239442,24.0081305 56.0776446,24.0633163 C56.1305217,24.1195278 56.1589768,24.1953073 56.1565285,24.2733944 C56.1584895,24.3485483 56.1299147,24.421156 56.0776446,24.4738359 C55.9671728,24.5871977 55.7880626,24.5871977 55.6775908,24.4738359 C55.567119,24.360474 55.5671189,24.1766782 55.6775907,24.0633163 C55.7294365,24.0088298 55.8005895,23.9782333 55.8748004,23.9785142 Z M58.47609,26.676765 L58.47609,26.676765 C58.2551301,26.6711248 58.0362889,26.7221324 57.8393844,26.8251688 C57.6991731,26.8992188 57.612409,27.0488557 57.6158801,27.2106332 C57.6118358,27.3160163 57.6526181,27.4180018 57.7276323,27.4900949 C57.8064754,27.5635842 57.9104707,27.6020435 58.0168731,27.5970613 C58.1384013,27.6013296 58.2569463,27.5579091 58.3483732,27.47564 C58.4346166,27.4000179 58.4829374,27.2884518 58.4798463,27.1720868 L58.4798463,26.679656 L58.47609,26.676765 Z M58.47609,26.3394837 L58.47609,26.3394837 L58.47609,25.892345 C58.4864247,25.7915638 58.4519243,25.6913735 58.3821806,25.6196289 C58.2850202,25.5570177 58.1706237,25.5286007 58.0563151,25.5386814 C57.9155311,25.5365918 57.7757366,25.5631205 57.644992,25.6167379 C57.520152,25.6725107 57.4079212,25.7542103 57.3153701,25.8566895 L57.2430599,25.6128833 C57.2379025,25.5980343 57.2335139,25.5829158 57.2299126,25.5675912 C57.2299126,25.5521726 57.2299126,25.536754 57.2299126,25.5203718 C57.2299126,25.4365333 57.323822,25.3546221 57.5116407,25.2727109 C57.7157561,25.1890001 57.9342185,25.1483597 58.1539808,25.153217 C58.3672577,25.1363788 58.5793033,25.198988 58.7512444,25.3295669 C58.8907471,25.4664558 58.9634092,25.6601076 58.9493932,25.8576532 L58.9559668,27.2751985 C58.9528253,27.370001 58.9698082,27.4643709 59.0057388,27.5517692 C59.0462415,27.6316169 59.1040736,27.7008528 59.1747757,27.7541381 L58.8479711,27.9198878 C58.8282953,27.9301341 58.8078896,27.9388321 58.78693,27.9459066 L58.7540617,27.9536159 C58.7115405,27.9502106 58.6736522,27.9247754 58.6535787,27.8861596 C58.6142101,27.8239928 58.582657,27.7569691 58.5596693,27.6866818 C58.4699674,27.7712929 58.3663016,27.8388395 58.2535247,27.8861596 C58.1404067,27.9325986 58.0194288,27.9555273 57.8976082,27.9536159 C57.7085289,27.9641589 57.5231012,27.8972667 57.3820458,27.7676293 C57.2543248,27.6342251 57.1863052,27.4523985 57.194227,27.2655619 C57.1807412,27.0043022 57.3006105,26.7546417 57.5107016,26.6064178 C57.8075201,26.4296335 58.145116,26.3377852 58.4882982,26.3404473 L58.47609,26.3394837 Z M62.5217056,27.478531 L62.5217056,27.478531 C62.8021322,27.4962859 63.0801604,27.4161297 63.3105444,27.251107 C63.5000749,27.0990658 63.605264,26.8615957 63.5922725,26.6150907 C63.6022982,26.4390503 63.5271169,26.2692523 63.3913064,26.1612064 C63.2161219,26.0456971 63.0092889,25.9912843 62.8015556,26.006057 C62.7517836,26.006057 62.6963771,26.006057 62.6287623,26.0128026 C62.5611476,26.0195482 62.4841419,26.0234029 62.3911716,26.0320758 L62.1770583,27.4775673 L62.5217056,27.478531 Z M63.4523475,25.7882696 L63.4523475,25.7882696 C63.6358005,25.8319211 63.8005384,25.9353782 63.9218944,26.0831498 C64.032082,26.2312116 64.0897266,26.413429 64.0852967,26.5996722 C64.0996317,26.9630192 63.9465752,27.312122 63.6720954,27.5421326 C63.3457823,27.7919511 62.9441272,27.9158047 62.5376702,27.8919416 C62.4437609,27.8919416 62.315105,27.8919416 62.1554591,27.8813413 C61.9958132,27.870741 61.873731,27.870741 61.8117508,27.870741 C61.7619788,27.870741 61.7178414,27.870741 61.6661913,27.870741 C61.6145411,27.870741 61.5722819,27.8774867 61.5319009,27.8813413 C61.5765495,27.8051352 61.6118753,27.7235729 61.6370794,27.6384987 C61.6688948,27.531555 61.6930624,27.4223714 61.7093896,27.3118177 L62.0737579,24.8756826 C62.0822098,24.8313542 62.0850271,24.7899168 62.0906616,24.752334 C62.0962962,24.7147512 62.0953571,24.689696 62.0953571,24.6752411 C62.0998841,24.6017751 62.0747522,24.5296345 62.0258642,24.4757633 C61.9693304,24.4272212 61.896508,24.40335 61.8230199,24.4092706 C61.7788968,24.4112314 61.7349633,24.4163837 61.6915468,24.4246892 L61.6521049,24.4295075 L61.7713698,24.1982289 C61.7963283,24.1407106 61.8354986,24.090882 61.8850001,24.0536797 C61.9297791,24.021713 61.9835821,24.0057934 62.0380724,24.0083877 C62.1330487,24.0070297 62.2261423,24.0356212 62.304775,24.0902988 C62.3846025,24.147205 62.4463328,24.2269731 62.4822637,24.3196502 C62.5842559,24.2141457 62.7055207,24.1303143 62.8391193,24.072953 C62.9796444,24.0176151 63.1290417,23.9898267 63.2795543,23.9910418 C63.5153661,23.9789912 63.7471823,24.0569117 63.9303462,24.2097928 C64.0924233,24.3577586 64.1816229,24.5722783 64.1735715,24.7947351 C64.1772069,25.0137869 64.1087159,25.2276909 63.9791791,25.4018415 C63.8488315,25.5829193 63.666611,25.717685 63.4579821,25.7873059 L63.4523475,25.7882696 Z M62.4475172,25.6523934 L62.4475172,25.6523934 L62.5038629,25.6601027 L62.5911986,25.6601027 C62.8733927,25.6742674 63.1522757,25.5926472 63.3847328,25.4278604 C63.5755361,25.291635 63.6878266,25.0669583 63.6843037,24.8284632 C63.6908949,24.7117917 63.6473021,24.5980215 63.5650388,24.5172007 C63.4748935,24.4382213 63.3584333,24.3981554 63.2401123,24.405416 C63.1153158,24.4067281 62.9925179,24.4377358 62.8813785,24.4960001 C62.76378,24.5618669 62.6605549,24.6517232 62.5780513,24.7600433 L62.4475172,25.653357 L62.4475172,25.6523934 Z M65.3126921,26.6989292 L65.3126921,26.6989292 C65.3133483,26.7098404 65.3133483,26.7207826 65.3126921,26.7316937 C65.3038595,26.7881265 65.298839,26.8451184 65.2976666,26.9022617 C65.2886019,27.0701789 65.3382179,27.2359057 65.4375916,27.3696373 C65.5320772,27.4845811 65.6734414,27.5476672 65.8198027,27.5402053 C65.9414256,27.5395405 66.061272,27.5101963 66.1700847,27.4544395 C66.3003864,27.3860991 66.4195151,27.2973413 66.5231839,27.19136 L66.4865593,27.4419119 C66.4623964,27.596815 66.3703258,27.7317852 66.2367604,27.8081031 C66.0722365,27.9061402 65.8841021,27.9545712 65.6939642,27.9478339 C65.4552014,27.959558 65.2243716,27.8583473 65.0675887,27.6731905 C64.9058698,27.4573967 64.8243069,27.1895675 64.8375107,26.9176803 C64.8353842,26.6811961 64.8731939,26.4461212 64.9492629,26.2228807 C65.0250304,26.0054157 65.1382697,25.8036948 65.2835802,25.6273382 C65.4014313,25.4831141 65.5464443,25.3647898 65.7099288,25.2794566 C65.8606098,25.1991615 66.0275438,25.1562537 66.1973184,25.1541806 C66.3466549,25.1484766 66.4928947,25.198841 66.6086415,25.2958388 C66.7127459,25.3796085 66.7733825,25.5079655 66.7729829,25.6437204 C66.7754973,25.9467405 66.6262004,26.229856 66.3776244,26.3934487 C66.0612978,26.6036078 65.6903277,26.7104521 65.3136312,26.6998929 L65.3126921,26.6989292 Z M65.3624641,26.3828484 L65.3624641,26.3828484 C65.6134685,26.3790277 65.8585434,26.3039821 66.0705408,26.1660247 C66.2338575,26.075497 66.3402946,25.9051113 66.3522689,25.7150313 C66.3552563,25.655943 66.333367,25.5983842 66.2921669,25.5569909 C66.2489887,25.5158784 66.1913211,25.4946445 66.1325209,25.4982076 C65.9543715,25.511206 65.7903805,25.6025486 65.6826951,25.7487595 C65.5268565,25.9298573 65.4163061,26.1471508 65.3605859,26.3818848 L65.3624641,26.3828484 Z M68.6774649,25.5627729 L68.6774649,25.5627729 C68.5873966,25.5640043 68.4988947,25.5871213 68.4192141,25.6302292 C68.3288356,25.67802 68.2484417,25.7434938 68.1825625,25.8229614 C68.0581605,25.9796014 67.9626845,26.1582401 67.9008344,26.350084 C67.8316415,26.5489746 67.7960703,26.7585339 67.7956559,26.969718 C67.7879332,27.1199366 67.8277963,27.2686855 67.9092862,27.3937288 C67.9766971,27.4946355 68.0897086,27.5531648 68.2088571,27.5488783 C68.3208344,27.5476409 68.4289666,27.5067963 68.5150017,27.4332389 C68.6236264,27.34835 68.7124832,27.2397224 68.7751306,27.1152308 C68.8619295,26.9453497 68.9287602,26.7654917 68.9742185,26.5794353 C69.0205611,26.3981853 69.0448494,26.2117433 69.0465287,26.0243665 C69.0540241,25.9011925 69.0209494,25.7790089 68.9526194,25.6774486 C68.8810776,25.5966118 68.7769297,25.5545753 68.6708912,25.5637366 L68.6774649,25.5627729 Z M68.9751576,27.3937288 L68.9751576,27.3937288 C68.8889462,27.5586078 68.7632238,27.698232 68.6098501,27.7994301 C68.4665041,27.8960441 68.2986561,27.9473137 68.127156,27.9468703 C67.9049385,27.9566876 67.6911103,27.8589288 67.5496134,27.6828271 C67.3972872,27.4789397 67.3201163,27.2263517 67.3317436,26.969718 C67.3309498,26.7682066 67.3584665,26.56763 67.4134448,26.3741755 C67.4679901,26.179008 67.5492492,25.9927709 67.6547918,25.821034 C67.7713881,25.6276702 67.9298044,25.4644502 68.117765,25.3440218 C68.2880891,25.2323248 68.4856664,25.1722025 68.6877949,25.1705629 C68.7999174,25.1682457 68.9110677,25.19231 69.0127213,25.2409101 C69.1055767,25.2885851 69.1841118,25.3611823 69.239982,25.4509882 C69.2611218,25.3900083 69.2929482,25.3335082 69.3338914,25.2842749 C69.3578307,25.249996 69.3961039,25.2292876 69.4371917,25.2283825 L69.7602399,25.2283825 C69.6280713,25.5266193 69.5291525,25.8392208 69.4653645,26.1602427 C69.3983322,26.4827071 69.3646514,26.8115305 69.3648815,27.1412497 C69.3552669,27.2767318 69.3881765,27.4118138 69.4587909,27.5267141 C69.5352845,27.6131032 69.647015,27.657393 69.7602399,27.646208 C69.7482354,27.7285854 69.711465,27.8050609 69.6550614,27.8649591 C69.5981871,27.9141945 69.5256606,27.94026 69.4512781,27.9381973 C69.3350669,27.9389979 69.2244263,27.8871667 69.1488899,27.7965391 C69.057744,27.6799562 68.9984344,27.5406074 68.9770358,27.3927652 L68.9751576,27.3937288 Z M72.7822435,25.1946544 L72.7822435,25.1946544 L72.5061499,27.0593385 C72.5061499,27.0766844 72.5061499,27.1036669 72.4958199,27.1383587 C72.4856422,27.2021161 72.479681,27.2665073 72.4779771,27.3310909 C72.4721788,27.3981838 72.4935798,27.4647636 72.53714,27.5151501 C72.594822,27.5553057 72.6627718,27.5770955 72.7324715,27.5777881 C72.7399843,27.5777881 72.7146287,27.5777881 72.7324715,27.5777881 L72.8066599,27.5777881 C72.819466,27.5790236 72.8323567,27.5790236 72.8451628,27.5777881 L72.8817874,27.5681515 L72.7878781,27.7994301 C72.7703953,27.8464016 72.7370748,27.8853807 72.6939687,27.9092875 C72.6411392,27.934484 72.583113,27.9460621 72.5249318,27.9430156 C72.4120725,27.9491795 72.3006044,27.9151366 72.2093963,27.8466495 C72.1244584,27.7727574 72.0678761,27.6702941 72.0497504,27.5575512 C71.9443223,27.6829268 71.8122834,27.7818269 71.6637829,27.8466495 C71.5095584,27.9130004 71.3436015,27.9458132 71.1763933,27.9430156 C71.0222814,27.9529475 70.869681,27.9068908 70.7453492,27.8129214 C70.643411,27.7153713 70.5896188,27.5759571 70.5988506,27.4332389 C70.5981701,27.3885362 70.5997373,27.3438271 70.6035461,27.2992901 C70.6101197,27.248216 70.6204498,27.1769051 70.6345362,27.0853573 L70.7951212,25.9761835 C70.7951212,25.9318551 70.803573,25.8961996 70.8063903,25.8682534 C70.8077794,25.8461122 70.8077794,25.8239021 70.8063903,25.8017608 C70.8116669,25.7309157 70.787832,25.6610343 70.7406538,25.6090286 C70.6842795,25.5625872 70.6126646,25.5401612 70.5406268,25.5463907 L70.6260843,25.3334216 C70.6412879,25.291699 70.6693052,25.2561839 70.7059073,25.2322372 C70.7454244,25.2075868 70.7911772,25.195514 70.8373804,25.1975454 C70.957575,25.1935963 71.0728733,25.2465358 71.1500986,25.3411309 C71.2336613,25.4508084 71.2762911,25.5875117 71.2703026,25.7265953 C71.2703026,25.7603234 71.2599726,25.8383799 71.244008,25.9665469 L71.2233479,26.1120597 L71.0618238,27.2115969 C71.0552502,27.248216 71.0524329,27.2790532 71.0496156,27.307963 C71.0467983,27.3368728 71.0496156,27.3561461 71.0496156,27.3744556 C71.0446372,27.4297212 71.0631178,27.4845065 71.1003267,27.5247867 C71.1486435,27.559076 71.2070641,27.575085 71.2656072,27.5700788 C71.3762186,27.5693751 71.4854042,27.5444038 71.5858381,27.4968406 C71.6914482,27.4479822 71.7870523,27.3789816 71.8675662,27.2935081 C71.932738,27.2173127 71.9842444,27.1298754 72.0196994,27.0352469 C72.0709848,26.8804169 72.106546,26.7205643 72.125817,26.5582347 L72.256351,25.6601027 C72.256351,25.6523934 72.256351,25.6408294 72.2610465,25.6225199 C72.2689694,25.5650051 72.2739847,25.5071079 72.276072,25.4490609 C72.276072,25.4249694 72.276072,25.3989505 72.2713765,25.3729317 C72.2687704,25.3447225 72.2643786,25.3167172 72.2582292,25.2890932 L72.7813044,25.1927271 L72.7822435,25.1946544 Z M74.6547963,24.411198 L74.6547963,24.411198 L74.5364705,25.2274189 L74.6932992,25.2274189 C74.7300267,25.2275822 74.7667266,25.2253291 74.8031731,25.2206732 L74.9280726,25.2014 L74.8773616,25.434606 C74.8691274,25.4821359 74.8452624,25.5253323 74.8097468,25.5569909 C74.7654549,25.5834874 74.7143759,25.5955832 74.6632482,25.5916827 L74.4754294,25.5916827 L74.2622552,27.0545202 C74.2538033,27.1104125 74.2472297,27.1508863 74.2453515,27.1797961 C74.2434733,27.2087059 74.2453515,27.2270155 74.2453515,27.2472524 C74.2390811,27.3356855 74.2659537,27.4232383 74.320479,27.4920223 C74.3824859,27.5507489 74.4654741,27.580415 74.5496178,27.5739335 C74.5934249,27.5738813 74.6370219,27.5677218 74.6792128,27.5556239 C74.728441,27.5428443 74.7765108,27.525757 74.8228941,27.5045499 L74.791904,27.7367922 C74.7852277,27.8040934 74.7460711,27.8634598 74.6876646,27.8948326 C74.601922,27.9342318 74.5081619,27.9517552 74.4143884,27.9459066 C74.2453177,27.9582269 74.0778591,27.9053003 73.9448415,27.7975028 C73.8332966,27.6790968 73.7762492,27.517499 73.7880129,27.3532551 C73.7880129,27.2935081 73.7880129,27.2260518 73.7983429,27.146068 C73.8086729,27.0660841 73.8161857,26.9735726 73.8321503,26.8723882 L74.019969,25.5926464 C73.949537,25.5926464 73.8866177,25.5926464 73.8321503,25.6003557 C73.7776828,25.608065 73.7382409,25.6090286 73.6941035,25.6148106 L73.7250936,25.3960595 C73.7284789,25.347644 73.7476675,25.3018124 73.779561,25.2659653 C73.8206395,25.2373808 73.8700279,25.2241154 73.919486,25.2283825 L74.0894619,25.2283825 L74.1429903,24.8140083 C74.1475426,24.786275 74.1503656,24.758272 74.1514421,24.7301698 C74.1530735,24.7144745 74.1530735,24.6986457 74.1514421,24.6829504 C74.1514421,24.6463313 74.1514421,24.6154941 74.1429903,24.5865843 C74.1381233,24.5614057 74.1315333,24.5366103 74.1232693,24.5123824 L74.6501009,24.4160163 L74.6547963,24.411198 Z M76.4587954,25.1763448 L76.4587954,25.1763448 L76.1911536,26.9851366 C76.1808236,27.0564475 76.1751891,27.1171581 76.1686154,27.1663048 C76.1629202,27.20619 76.1600953,27.2464515 76.1601636,27.2867625 C76.1533779,27.3676804 76.1787824,27.4479735 76.2305956,27.5093682 C76.2883643,27.5637727 76.3656146,27.5910113 76.4437699,27.5845337 L76.5076282,27.5845337 C76.5273492,27.5845337 76.5470702,27.5845337 76.5667911,27.5845337 L76.4437699,27.8235217 C76.4274955,27.8627521 76.4004035,27.8962471 76.3658251,27.9198878 C76.3254488,27.9408494 76.2804982,27.9508047 76.2352911,27.9487976 C76.0871166,27.9581057 75.9422633,27.9011787 75.8380544,27.7926845 C75.7382893,27.6680218 75.6876923,27.5095091 75.6962513,27.3484368 C75.6962513,27.3012174 75.6962513,27.2520707 75.7028249,27.188469 C75.7093986,27.1248674 75.7178504,27.0631931 75.7272414,26.9957368 L75.9235119,25.6822669 C75.9282074,25.6408294 75.9347811,25.6013193 75.9385374,25.5637366 C75.9429106,25.5295492 75.9451065,25.4951055 75.9451111,25.4606248 C75.9421235,25.4106674 75.9352144,25.3610386 75.924451,25.312221 C75.9254511,25.3058376 75.9254511,25.2993312 75.924451,25.2929478 L76.4625517,25.1869451 L76.4587954,25.1763448 Z M76.4015106,24.0796986 L76.4015106,24.0796986 C76.4699639,24.077608 76.536311,24.1041264 76.5853519,24.1531785 C76.6343927,24.2022306 76.6619245,24.2696125 76.6616396,24.3398871 C76.662662,24.4244273 76.6285014,24.5054027 76.5677302,24.5624928 C76.5064457,24.6218251 76.4246874,24.6537199 76.3404695,24.6511496 C76.2685839,24.6550455 76.1980882,24.6297784 76.144199,24.5808023 C76.0946373,24.5330542 76.0678805,24.4654681 76.0709497,24.3957794 C76.0689661,24.3099285 76.1031981,24.2273787 76.164859,24.1693191 C76.2284363,24.1079482 76.3133491,24.0753163 76.4005715,24.0787349 L76.4015106,24.0796986 Z M78.9023172,24.1114994 L78.9023172,24.1114994 L78.8215551,24.2743581 C78.7888713,24.2437544 78.7514132,24.2189977 78.7107421,24.2011199 C78.6741121,24.1869028 78.6353327,24.1794007 78.5961726,24.1789557 C78.5219174,24.1773595 78.4516627,24.2134058 78.4083539,24.2753218 C78.3512581,24.3593044 78.3172024,24.4574875 78.3097491,24.5596018 L78.2158397,25.2341645 L78.3097491,25.2341645 C78.3567037,25.2341645 78.4036584,25.2341645 78.4402831,25.2341645 C78.4769077,25.2341645 78.5182279,25.2274189 78.5492179,25.2226006 L78.5248015,25.4153328 C78.5233934,25.4705134 78.5049826,25.5238171 78.4722123,25.5675912 C78.4343086,25.5977506 78.3865971,25.6118868 78.338861,25.6071013 L78.1604332,25.6071013 L77.8740096,27.5344233 C77.8312283,27.898323 77.7477242,28.2559516 77.6251497,28.6002324 C77.5256058,28.8469297 77.4157318,28.9702783 77.2955278,28.9702783 L76.875753,28.9702783 C77.0251943,28.8181294 77.1374922,28.6319032 77.2034967,28.4267735 C77.3068684,28.1293279 77.3792689,27.8214901 77.4194882,27.5084045 L77.7012163,25.6099923 L77.6185761,25.6099923 C77.5800732,25.6099923 77.5406313,25.6099923 77.5040067,25.6157743 C77.467382,25.6215562 77.4279401,25.6234835 77.3913154,25.6283018 L77.4232446,25.3922049 C77.4263206,25.3486131 77.4450616,25.3077465 77.4758338,25.2775292 C77.5151594,25.2525675 77.5612047,25.2410925 77.607307,25.2447648 L77.7500492,25.2447648 L77.8514713,24.5894753 C77.8715822,24.3735237 77.9603481,24.1703534 78.1040875,24.0112786 C78.2444669,23.8772675 78.4319664,23.8076817 78.6234063,23.8185464 C78.7042168,23.8148095 78.7847232,23.8310015 78.8581798,23.8657658 C78.9089849,23.884889 78.9434902,23.9336226 78.9455155,23.9891144 C78.9466627,24.0097268 78.9437893,24.0303668 78.9370636,24.0498251 C78.9294322,24.0787187 78.9183946,24.1065492 78.9041954,24.1326999 L78.9023172,24.1114994 Z M81.4031237,25.1946544 L81.4031237,25.1946544 L81.1279693,27.0593385 C81.1269356,27.0859515 81.1234772,27.1124069 81.1176392,27.1383587 C81.1063701,27.2347248 81.0979183,27.2954354 81.0979183,27.3310909 C81.0929311,27.3978401 81.1150177,27.4637412 81.1589594,27.5132228 C81.2150536,27.5606131 81.2864321,27.5846845 81.3589863,27.5806791 L81.4312965,27.5806791 C81.4436188,27.5801777 81.4558742,27.5785654 81.4679212,27.5758608 L81.5026677,27.5662242 L81.4087583,27.7975028 C81.3914222,27.8445648 81.3580616,27.8835908 81.3148489,27.9073602 C81.2616651,27.932489 81.203352,27.94406 81.144873,27.9410883 C81.0316877,27.9475581 80.9198253,27.9134961 80.8283984,27.8447222 C80.7434604,27.77083 80.6868781,27.6683668 80.6687524,27.5556239 C80.5636155,27.6809059 80.4319026,27.7798025 80.283724,27.8447222 C80.1297588,27.9108355 79.9641568,27.9436413 79.7972735,27.9410883 C79.6431616,27.9510201 79.4905612,27.9049635 79.3662295,27.8109941 C79.2636646,27.7132863 79.2089185,27.5737238 79.2169136,27.430348 C79.2169136,27.3937288 79.2169136,27.3484368 79.2253654,27.2963991 C79.2338173,27.2443614 79.2403909,27.1740141 79.2544773,27.0824663 L79.4141233,25.9732925 C79.4188187,25.9299277 79.4225751,25.8961996 79.4253924,25.8663261 C79.4266986,25.8441822 79.4266986,25.8219774 79.4253924,25.7998335 C79.4323237,25.7284144 79.4074801,25.6575989 79.3577776,25.6071013 C79.3027981,25.5600959 79.2318114,25.537549 79.1605679,25.5444633 L79.2460255,25.3334216 C79.2595125,25.2908061 79.2866522,25.254126 79.3230312,25.2293462 C79.3635351,25.2054393 79.4096713,25.1934369 79.4563825,25.1946544 C79.5765493,25.1908498 79.6917888,25.2437623 79.7691007,25.3382399 C79.8507555,25.4488918 79.892863,25.5849834 79.8883656,25.7237043 C79.8883656,25.7564688 79.8799137,25.8345253 79.8639491,25.9626922 C79.8554973,26.0224392 79.8489236,26.0706223 79.84235,26.108205 L79.6827041,27.2077423 C79.6768616,27.2395711 79.6730969,27.2717647 79.6714349,27.3041084 C79.6698607,27.3262431 79.6698607,27.3484662 79.6714349,27.370601 C79.6673118,27.4259313 79.6860568,27.4804898 79.7230851,27.5209321 C79.7711784,27.5549323 79.8292044,27.5709241 79.8874265,27.5662242 C79.9986138,27.5652667 80.1083608,27.5403134 80.2095356,27.4929859 C80.3129495,27.443657 80.4063153,27.3746619 80.4846901,27.2896534 C80.5507723,27.2143351 80.603243,27.1275331 80.6396405,27.0333196 C80.6892051,26.8764095 80.7244167,26.7151024 80.744819,26.5514891 L80.8753531,25.6552844 C80.8753531,25.6475751 80.8753531,25.6340838 80.8753531,25.6177016 C80.884744,25.5338631 80.8903786,25.4760434 80.8903786,25.4442426 C80.8910662,25.4190542 80.8891777,25.3938612 80.884744,25.369077 C80.8832013,25.3405461 80.8794329,25.3121879 80.8734749,25.2842749 L81.395611,25.1879088 L81.4031237,25.1946544 Z M83.3066667,23.7838546 L83.3066667,23.7838546 L82.8371198,26.9880275 C82.8239725,27.0612658 82.8155207,27.1248674 82.8108252,27.1807598 C82.8040776,27.2234731 82.8003116,27.2666264 82.7995561,27.3098903 C82.794573,27.3866133 82.8195808,27.4622124 82.869049,27.5199684 C82.9262976,27.5692419 83.0002764,27.59316 83.0747105,27.586461 C83.109313,27.5855835 83.1438214,27.5823643 83.1780108,27.5768244 L83.2014882,27.5768244 L83.0944315,27.8032848 C83.0791678,27.8486304 83.0498005,27.8875696 83.0108521,27.9141058 C82.9641067,27.9360426 82.9128576,27.9459652 82.8615362,27.9430156 C82.7182303,27.9519329 82.577652,27.9000147 82.4727515,27.7994301 C82.3760556,27.6867344 82.3258752,27.539858 82.3328265,27.3898742 C82.3397709,27.2503987 82.3541921,27.1114213 82.3760248,26.9735726 L82.3807203,26.9408082 L82.7723223,24.2714671 C82.7770178,24.2165384 82.7854697,24.1673917 82.7911042,24.126918 C82.7967388,24.0864442 82.798617,24.0536797 82.798617,24.0363338 C82.7976142,24.0149748 82.7951034,23.9937185 82.7911042,23.9727322 C82.7870863,23.9474569 82.7807989,23.9226172 82.7723223,23.8985303 L83.3057276,23.78 L83.3066667,23.7838546 Z" id="Shape___uRWMtWW3" fill="#7D7D7D"></path>
            </g>
        </g>
    </g>
</svg>